<?xml version="1.0" encoding="utf-8"?>
<!-- Generator: Adobe Illustrator 21.0.0, SVG Export Plug-In . SVG Version: 6.00 Build 0)  -->
<svg version="1.1" id="Calque_1" xmlns="http://www.w3.org/2000/svg" xmlns:xlink="http://www.w3.org/1999/xlink" x="0px" y="0px"
	 viewBox="0 0 1024 1024" style="enable-background:new 0 0 1024 1024;" xml:space="preserve">
<style type="text/css">
	.st0{fill:#CC0066;}
	.st1{fill:#FFFFFF;}
</style>
<path d="M519.1,180.8c27,0,54.4,5.9,79.1,16.9c40.8,18.3,74.2,52.9,90.7,94.6c9.5,23.9,9.7,51.4,9.5,76.7
	c-0.1,14.6-0.8,29.2-1.7,43.8c-0.4,7.3-0.9,14.6-1.3,22c-0.2,4-0.5,8-0.7,12.1c-0.2,2.6-1,6.1-0.5,8.6c1.2,5.6,10.2,9.4,15.1,10.9
	c13,4.1,26.5,1.1,39-3.3c7.4-2.6,14.1-7.1,22.3-6.3c5.9,0.5,12.8,3.2,17,7.5c4.4,4.5,3.5,8.9-0.3,13.2c-7.2,8.2-19.1,12.9-29.2,16.2
	c-11,3.6-22.2,6.9-32.5,12.4c-10.1,5.5-19.5,13.3-23.5,24.4c-4.7,12.9-0.8,26.1,4.7,38.1c9.3,20.3,21.4,39.4,35.5,56.8
	c26.4,32.5,60.9,58.8,101.3,70.8c5.9,1.8,12,3.2,18,4.4c2.6,0.5,4.2-0.1,3.3,2.6c-0.1,0.3-0.4,0.7-0.5,1c-1.3,2.3-3.6,4.1-5.7,5.6
	c-11.9,8.7-27.6,12.7-41.7,16.2c-6.7,1.6-13.4,3-20.1,4.3c-6.7,1.3-14.9,1.3-21.1,4c-10.5,4.5-12,20.1-14.1,29.7
	c-0.8,3.8-1.7,7.5-2.7,11.2c-0.9,3.3-0.6,5-4.1,5c-6,0.1-12.1-1.5-18-2.6c-13.9-2.6-28-3.9-42.1-3.6c-15.4,0.4-31.2,2.2-45.6,8.1
	c-13.7,5.7-26,14.3-38.1,22.9c-21.1,14.9-42.6,29.7-68.3,35.4c-12.9,2.8-26.2,3.2-39.3,2.7c-14-0.5-27.8-3.4-40.8-8.6
	c-24.8-9.9-44.9-27.5-67.3-41.6c-12.7-8-26.2-14.3-41.1-16.7c-15.8-2.5-31.9-3-47.9-1.3c-6.2,0.7-12.3,1.6-18.5,2.8
	c-6,1.1-12.5,3.2-18.6,3c-2.9-0.1-2.9-1-3.7-3.7c-1.1-4-2.1-8.1-3-12.2c-1.4-6.2-2.5-12.7-4.8-18.7c-1.8-4.7-4.4-9.5-9.1-11.8
	c-6-2.9-14.3-2.8-20.8-4.1c-12.2-2.3-24.3-5-36.2-8.7c-10.2-3.2-22.4-7.1-30.1-15c-0.7-0.8-1.4-1.5-2-2.5c-0.2-0.3-0.4-0.6-0.5-0.9
	c-0.8-2.5,0.2-2.2,2.6-2.7c11.8-2.2,23.3-5.5,34.4-10c20.3-8.1,39-20,55.6-34.3c24.3-21,44.4-47,59.4-75.3
	c5.1-9.7,10.6-20.3,12.4-31.1c4.4-27.1-18-42.5-40.5-50.7c-12-4.4-24.3-7.3-35.4-13.7c-5.1-2.9-15-8.7-14.2-15.9
	c0.6-5.5,7.4-9.2,11.9-10.9c3.1-1.1,6.4-1.9,9.7-1.7c4,0.2,7.4,2.3,11,3.8c13.1,5.4,27.9,9.2,42.1,7c7.1-1.1,14.5-3.8,19.7-9.1
	c1.2-1.3,1.7-1.8,2-3.3c0.5-2.8-0.4-6.6-0.5-9.5c-0.5-7.6-0.9-15.2-1.4-22.7c-1.8-28.9-3.5-58-1.4-87c0.9-12.4,2.5-24.9,6.2-36.9
	c3.6-11.9,9.6-23.1,16.1-33.6c11.9-19.4,27.4-36.5,45.8-49.9c27-19.6,59.6-30.9,92.8-34.1C497.9,180.8,508.5,180.8,519.1,180.8
	 M0,860.2C0,950.6,73.4,1024,163.8,1024h696.3c90.5,0,163.8-73.4,163.8-163.8V163.8C1024,73.4,950.6,0,860.2,0H163.8
	C73.4,0,0,73.4,0,163.8V860.2"/>
<path class="st0" d="M19.2,163.8C19.2,84,84,19.2,163.8,19.2h696.3c79.9,0,144.6,64.8,144.6,144.6v696.3
	c0,79.9-64.8,144.6-144.6,144.6H163.8C84,1004.8,19.2,940,19.2,860.2V163.8 M519.1,165.5c-24.5,0.1-48.2,1.6-71.9,8.3
	c-37.8,10.7-71.9,32.3-96.6,62.9c-15.4,19-28.7,41.6-34.4,65.4c-6.4,26.6-6.3,54.7-5.5,81.9c0.4,14.4,1.3,28.7,2.2,43.1
	c0.2,3.5,0.4,6.9,0.7,10.4c0.1,2.3,1.8,11.2,0.5,12.8c-2.9,3.3-12.1,3.1-15.9,2.9c-6.7-0.2-13.4-1.9-19.7-4
	c-6.9-2.4-13.5-6.5-20.9-7.3c-11.6-1.1-24.4,3.7-32.4,12.1c-13.6,14.4-5,31.3,9.1,41.1c11.3,7.9,24.3,12,37.2,16.2
	c10.7,3.5,22.5,7.6,30.7,15.7c11.9,11.8,5.2,27.4-1,40.4c-4.9,10.1-10.6,19.8-16.9,29.1c-21.3,31.7-49.7,59.5-84.5,75.9
	c-10.5,4.9-21.5,8.8-32.8,11.4c-5.5,1.3-12.3,1.4-17,4.7c-5.2,3.7-7.3,10-6.1,16.1c3.1,15.6,21.8,23.7,35,28.6
	c11.6,4.3,23.7,7.4,35.9,10c7.4,1.6,14.8,2.9,22.3,4.1c3.6,0.6,5.3,0.3,6.6,3.9c1,2.7,1.7,5.6,2.4,8.4c1.7,7,3,14,4.9,20.8
	c1.2,4.5,2.9,8.8,6.7,11.8c9.9,7.8,25.5,1.8,36.4-0.2c29.3-5.2,61.1-5,87.5,10.1c22.9,13.2,42.6,31,66.6,42.4
	c25.5,12.2,53.6,15.7,81.6,13.1c26.2-2.4,49.9-13.2,71.7-27.5c23.8-15.7,45.6-35.6,74.8-39.5c15.9-2.2,32-2,47.9,0.2
	c11,1.5,22.4,5.4,33.6,4.4c15.2-1.3,16.8-17.8,19.4-29.8c1.1-4.8,1.5-12,4.4-16.1c1.7-2.4,6.5-2.2,9.4-2.7c4.1-0.7,8.1-1.4,12.2-2.2
	c21.3-4.2,44.8-9,63.1-21.4c5.3-3.6,10.3-8.1,13-14.1c2.5-5.6,2.5-12.1-1.2-17.1c-3.9-5.3-9.6-5.9-15.5-7.1
	c-22.3-4.5-43.3-13.7-62.1-26.5c-28.7-19.6-52-46.8-69.4-76.8c-3.6-6.2-6.9-12.6-9.9-19.2c-4.6-10.1-8.8-22.1-1.6-32.1
	c6.7-9.2,18.7-13.8,29-17.5c12.7-4.5,25.5-7.9,37.2-14.9c8.5-5,17.5-12.2,19.9-22.3c6.4-26.6-31.6-40-51.3-31.6
	c-12.2,5.2-27,12-40.5,7.5c-0.9-0.3-2.4-0.6-3-1.2c-1.1-1.1-0.5-2.9-0.4-4.6c0.2-3.9,0.5-7.8,0.7-11.7c0.4-6,0.8-12,1.1-18.1
	c1.7-28.5,3-57.2,0.5-85.6c-1.2-12.6-3.1-25.3-7-37.4c-3.8-11.8-9.7-23.1-16.1-33.7c-11.9-19.8-27.1-37.5-45.2-51.7
	c-27.3-21.5-60.4-34.7-94.7-39.8C539.4,166.4,529.2,165.5,519.1,165.5 M273.8,45.7c-9.1,0-16.4,7.4-16.4,16.4
	c0,9.1,7.4,16.4,16.4,16.4c9.1,0,16.4-7.4,16.4-16.4C290.2,53,282.9,45.7,273.8,45.7 M379.7,45.7c-9.1,0-16.4,7.4-16.4,16.4
	c0,9.1,7.4,16.4,16.4,16.4c9.1,0,16.4-7.4,16.4-16.4C396.1,53,388.7,45.7,379.7,45.7 M432.6,45.7c-9.1,0-16.4,7.4-16.4,16.4
	c0,9.1,7.4,16.4,16.4,16.4c9.1,0,16.4-7.4,16.4-16.4C449,53,441.7,45.7,432.6,45.7 M485.5,45.7c-9.1,0-16.4,7.4-16.4,16.4
	c0,9.1,7.4,16.4,16.4,16.4c9.1,0,16.4-7.4,16.4-16.4C501.9,53,494.6,45.7,485.5,45.7 M538.5,45.7c-9.1,0-16.4,7.4-16.4,16.4
	c0,9.1,7.4,16.4,16.4,16.4c9.1,0,16.4-7.4,16.4-16.4C554.9,53,547.5,45.7,538.5,45.7 M644.3,45.7c-9.1,0-16.4,7.4-16.4,16.4
	c0,9.1,7.4,16.4,16.4,16.4c9.1,0,16.4-7.4,16.4-16.4C660.7,53,653.4,45.7,644.3,45.7 M697.3,45.7c-9.1,0-16.4,7.4-16.4,16.4
	c0,9.1,7.4,16.4,16.4,16.4c9.1,0,16.4-7.4,16.4-16.4C713.7,53,706.3,45.7,697.3,45.7 M803.1,45.7c-9.1,0-16.4,7.4-16.4,16.4
	c0,9.1,7.4,16.4,16.4,16.4c9.1,0,16.4-7.4,16.4-16.4C819.5,53,812.2,45.7,803.1,45.7 M273.8,98.6c-9.1,0-16.4,7.4-16.4,16.4
	c0,9.1,7.4,16.4,16.4,16.4c9.1,0,16.4-7.4,16.4-16.4C290.2,105.9,282.9,98.6,273.8,98.6 M485.5,98.6c-9.1,0-16.4,7.4-16.4,16.4
	c0,9.1,7.4,16.4,16.4,16.4c9.1,0,16.4-7.4,16.4-16.4C502,105.9,494.6,98.6,485.5,98.6 M538.5,98.6c-9.1,0-16.4,7.4-16.4,16.4
	c0,9.1,7.4,16.4,16.4,16.4c9.1,0,16.4-7.4,16.4-16.4C554.9,105.9,547.5,98.6,538.5,98.6 M591.4,98.6c-9.1,0-16.4,7.4-16.4,16.4
	c0,9.1,7.4,16.4,16.4,16.4c9.1,0,16.4-7.4,16.4-16.4C607.8,105.9,600.5,98.6,591.4,98.6 M803.1,98.6c-9.1,0-16.4,7.4-16.4,16.4
	c0,9.1,7.4,16.4,16.4,16.4c9.1,0,16.4-7.4,16.4-16.4C819.5,105.9,812.2,98.6,803.1,98.6 M909,98.6c-9.1,0-16.4,7.4-16.4,16.4
	c0,9.1,7.4,16.4,16.4,16.4c9.1,0,16.4-7.4,16.4-16.4C925.4,105.9,918.1,98.6,909,98.6 M697.3,151.5c-9.1,0-16.4,7.4-16.4,16.4
	c0,9.1,7.4,16.4,16.4,16.4c9.1,0,16.4-7.4,16.4-16.4C713.7,158.9,706.3,151.5,697.3,151.5 M803.1,151.5c-9.1,0-16.4,7.4-16.4,16.4
	c0,9.1,7.4,16.4,16.4,16.4c9.1,0,16.4-7.4,16.4-16.4C819.5,158.9,812.2,151.5,803.1,151.5 M856,151.5c-9.1,0-16.4,7.4-16.4,16.4
	c0,9.1,7.4,16.4,16.4,16.4c9.1,0,16.4-7.4,16.4-16.4C872.5,158.9,865.1,151.5,856,151.5 M909,151.5c-9.1,0-16.4,7.4-16.4,16.4
	c0,9.1,7.4,16.4,16.4,16.4c9.1,0,16.4-7.4,16.4-16.4C925.4,158.9,918.1,151.5,909,151.5 M62.1,204.4c-9.1,0-16.4,7.4-16.4,16.4
	c0,9.1,7.4,16.4,16.4,16.4c9.1,0,16.4-7.4,16.4-16.4C78.5,211.8,71.2,204.5,62.1,204.4 M750.2,204.4c-9.1,0-16.4,7.4-16.4,16.4
	c0,9.1,7.4,16.4,16.4,16.4c9.1,0,16.4-7.4,16.4-16.4C766.6,211.8,759.3,204.5,750.2,204.4 M909,204.4c-9.1,0-16.4,7.4-16.4,16.4
	c0,9.1,7.4,16.4,16.4,16.4c9.1,0,16.4-7.4,16.4-16.4C925.4,211.8,918.1,204.5,909,204.4 M961.9,204.4c-9.1,0-16.4,7.4-16.4,16.4
	c0,9.1,7.4,16.4,16.4,16.4c9.1,0,16.4-7.4,16.4-16.4C978.3,211.8,971,204.5,961.9,204.4 M115,257.4c-9.1,0-16.4,7.4-16.4,16.4
	c0,9.1,7.4,16.4,16.4,16.4c9.1,0,16.4-7.4,16.4-16.4C131.4,264.7,124.1,257.4,115,257.4 M909,257.4c-9.1,0-16.4,7.4-16.4,16.4
	c0,9.1,7.4,16.4,16.4,16.4c9.1,0,16.4-7.4,16.4-16.4C925.4,264.7,918,257.4,909,257.4 M961.9,257.4c-9.1,0-16.4,7.4-16.4,16.4
	c0,9.1,7.4,16.4,16.4,16.4c9.1,0,16.4-7.4,16.4-16.4C978.3,264.7,971,257.4,961.9,257.4 M273.8,310.3c-9.1,0-16.4,7.4-16.4,16.4
	c0,9.1,7.4,16.4,16.4,16.4s16.4-7.4,16.4-16.4C290.2,317.7,282.9,310.3,273.8,310.3 M750.2,310.3c-9.1,0-16.4,7.4-16.4,16.4
	c0,9.1,7.4,16.4,16.4,16.4s16.4-7.4,16.4-16.4C766.6,317.7,759.3,310.3,750.2,310.3 M856,310.3c-9.1,0-16.4,7.4-16.4,16.4
	c0,9.1,7.4,16.4,16.4,16.4s16.4-7.4,16.4-16.4C872.5,317.7,865.1,310.3,856,310.3L856,310.3 M961.9,310.3c-9.1,0-16.4,7.4-16.4,16.4
	c0,9.1,7.4,16.4,16.4,16.4s16.4-7.4,16.4-16.4C978.3,317.7,971,310.3,961.9,310.3 M220.9,363.2c-9.1,0-16.4,7.4-16.4,16.4
	c0,9.1,7.4,16.4,16.4,16.4s16.4-7.4,16.4-16.4C237.3,370.6,230,363.2,220.9,363.2L220.9,363.2 M273.8,363.2
	c-9.1,0-16.4,7.4-16.4,16.4c0,9.1,7.4,16.4,16.4,16.4s16.4-7.4,16.4-16.4C290.2,370.6,282.9,363.2,273.8,363.2 M961.9,363.2
	c-9.1,0-16.4,7.4-16.4,16.4c0,9.1,7.4,16.4,16.4,16.4s16.4-7.4,16.4-16.4C978.3,370.6,971,363.2,961.9,363.2 M62.1,416.2
	c-9.1,0-16.4,7.4-16.4,16.4c0,9.1,7.4,16.4,16.4,16.4c9.1,0,16.4-7.4,16.4-16.4C78.5,423.5,71.2,416.2,62.1,416.2 M961.9,416.2
	c-9.1,0-16.4,7.4-16.4,16.4c0,9.1,7.4,16.4,16.4,16.4c9.1,0,16.4-7.4,16.4-16.4C978.3,423.5,971,416.2,961.9,416.2 M115,469.1
	c-9.1,0-16.4,7.4-16.4,16.4c0,9.1,7.4,16.4,16.4,16.4c9.1,0,16.4-7.4,16.4-16.4C131.4,476.5,124.1,469.1,115,469.1 M856,469.1
	c-9.1,0-16.4,7.4-16.4,16.4c0,9.1,7.4,16.4,16.4,16.4c9.1,0,16.4-7.4,16.4-16.4C872.5,476.5,865.1,469.1,856,469.1 M909,469.1
	c-9.1,0-16.4,7.4-16.4,16.4c0,9.1,7.4,16.4,16.4,16.4c9.1,0,16.4-7.4,16.4-16.4C925.4,476.5,918,469.1,909,469.1 M220.9,522
	c-9.1,0-16.4,7.4-16.4,16.4c0,9.1,7.4,16.4,16.4,16.4l0,0c9.1,0,16.4-7.4,16.4-16.4C237.3,529.4,230,522,220.9,522 M856,522
	c-9.1,0-16.4,7.4-16.4,16.4c0,9.1,7.4,16.4,16.4,16.4s16.4-7.4,16.4-16.4C872.5,529.4,865.1,522,856,522 M909,522
	c-9.1,0-16.4,7.4-16.4,16.4c0,9.1,7.4,16.4,16.4,16.4l0,0c9.1,0,16.4-7.4,16.4-16.4C925.4,529.4,918.1,522,909,522 M961.9,522
	c-9.1,0-16.4,7.4-16.4,16.4c0,9.1,7.4,16.4,16.4,16.4l0,0c9.1,0,16.4-7.4,16.4-16.4C978.3,529.4,971,522,961.9,522 M115,575
	c-9.1,0-16.4,7.4-16.4,16.4c0,9.1,7.4,16.4,16.4,16.4l0,0c9.1,0,16.4-7.4,16.4-16.4C131.5,582.3,124.1,575,115,575 M167.9,575
	c-9.1,0-16.4,7.4-16.4,16.4c0,9.1,7.4,16.4,16.4,16.4s16.4-7.4,16.4-16.4C184.4,582.3,177,575,167.9,575 M803.1,575
	c-9.1,0-16.4,7.4-16.4,16.4c0,9.1,7.4,16.4,16.4,16.4l0,0c9.1,0,16.4-7.4,16.4-16.4C819.5,582.3,812.2,575,803.1,575 M856,575
	c-9.1,0-16.4,7.4-16.4,16.4c0,9.1,7.4,16.4,16.4,16.4s16.4-7.4,16.4-16.4C872.5,582.3,865.1,575,856,575 M909,575
	c-9.1,0-16.4,7.4-16.4,16.4c0,9.1,7.4,16.4,16.4,16.4l0,0c9.1,0,16.4-7.4,16.4-16.4C925.4,582.3,918.1,575,909,575 M62.1,627.9
	c-9.1,0-16.4,7.4-16.4,16.4c0,9.1,7.4,16.4,16.4,16.4c9.1,0,16.4-7.4,16.4-16.4C78.5,635.3,71.2,627.9,62.1,627.9 M167.9,627.9
	c-9.1,0-16.4,7.4-16.4,16.4c0,9.1,7.4,16.4,16.4,16.4c9.1,0,16.4-7.4,16.4-16.4C184.4,635.3,177,627.9,167.9,627.9 M909,627.9
	c-9.1,0-16.4,7.4-16.4,16.4c0,9.1,7.4,16.4,16.4,16.4c9.1,0,16.4-7.4,16.4-16.4C925.4,635.3,918,627.9,909,627.9 M961.9,627.9
	c-9.1,0-16.4,7.4-16.4,16.4c0,9.1,7.4,16.4,16.4,16.4c9.1,0,16.4-7.4,16.4-16.4C978.3,635.3,971,627.9,961.9,627.9 M62.1,680.8
	c-9.1,0-16.4,7.4-16.4,16.4c0,9.1,7.4,16.4,16.4,16.4c9.1,0,16.4-7.4,16.4-16.4C78.5,688.2,71.2,680.8,62.1,680.8 M62.1,733.8
	c-9.1,0-16.4,7.4-16.4,16.4c0,9.1,7.4,16.4,16.4,16.4c9.1,0,16.4-7.4,16.4-16.4C78.5,741.1,71.2,733.8,62.1,733.8 M961.9,733.8
	c-9.1,0-16.4,7.4-16.4,16.4c0,9.1,7.4,16.4,16.4,16.4c9.1,0,16.4-7.4,16.4-16.4C978.3,741.1,971,733.8,961.9,733.8 M220.9,786.7
	c-9.1,0-16.4,7.4-16.4,16.4c0,9.1,7.4,16.4,16.4,16.4c9.1,0,16.4-7.4,16.4-16.4C237.3,794,229.9,786.7,220.9,786.7 M803.1,786.7
	c-9.1,0-16.4,7.4-16.4,16.4c0,9.1,7.4,16.4,16.4,16.4c9.1,0,16.4-7.4,16.4-16.4C819.5,794,812.2,786.7,803.1,786.7 M856,786.7
	c-9.1,0-16.4,7.4-16.4,16.4c0,9.1,7.4,16.4,16.4,16.4c9.1,0,16.4-7.4,16.4-16.4C872.5,794,865.1,786.7,856,786.7 M961.9,786.7
	c-9.1,0-16.4,7.4-16.4,16.4c0,9.1,7.4,16.4,16.4,16.4c9.1,0,16.4-7.4,16.4-16.4C978.3,794,971,786.7,961.9,786.7 M115,839.6
	c-9.1,0-16.4,7.4-16.4,16.4c0,9.1,7.4,16.4,16.4,16.4c9.1,0,16.4-7.4,16.4-16.4C131.4,847,124.1,839.6,115,839.6 M167.9,839.6
	c-9.1,0-16.4,7.4-16.4,16.4c0,9.1,7.4,16.4,16.4,16.4c9.1,0,16.4-7.4,16.4-16.4C184.4,847,177,839.6,167.9,839.6 M326.7,839.6
	c-9.1,0-16.4,7.4-16.4,16.4c0,9.1,7.4,16.4,16.4,16.4c9.1,0,16.4-7.4,16.4-16.4C343.1,847,335.8,839.6,326.7,839.6 M697.3,839.6
	c-9.1,0-16.4,7.4-16.4,16.4c0,9.1,7.4,16.4,16.4,16.4c9.1,0,16.4-7.4,16.4-16.4C713.7,847,706.3,839.6,697.3,839.6 M803.1,839.6
	c-9.1,0-16.4,7.4-16.4,16.4c0,9.1,7.4,16.4,16.4,16.4c9.1,0,16.4-7.4,16.4-16.4C819.5,847,812.2,839.6,803.1,839.6 M856,839.6
	c-9.1,0-16.4,7.4-16.4,16.4c0,9.1,7.4,16.4,16.4,16.4c9.1,0,16.4-7.4,16.4-16.4C872.5,847,865.1,839.6,856,839.6 M909,839.6
	c-9.1,0-16.4,7.4-16.4,16.4c0,9.1,7.4,16.4,16.4,16.4c9.1,0,16.4-7.4,16.4-16.4C925.4,847,918,839.6,909,839.6 M167.9,892.5
	c-9.1,0-16.4,7.4-16.4,16.4c0,9.1,7.4,16.4,16.4,16.4c9.1,0,16.4-7.4,16.4-16.4C184.4,899.9,177,892.6,167.9,892.5 M220.9,892.5
	c-9.1,0-16.4,7.4-16.4,16.4c0,9.1,7.4,16.4,16.4,16.4c9.1,0,16.4-7.4,16.4-16.4C237.3,899.9,229.9,892.6,220.9,892.5 M326.7,892.5
	c-9.1,0-16.4,7.4-16.4,16.4c0,9.1,7.4,16.4,16.4,16.4c9.1,0,16.4-7.4,16.4-16.4C343.1,899.9,335.8,892.6,326.7,892.5 M379.7,892.5
	c-9.1,0-16.4,7.4-16.4,16.4c0,9.1,7.4,16.4,16.4,16.4c9.1,0,16.4-7.4,16.4-16.4C396.1,899.9,388.7,892.6,379.7,892.5 M591.4,892.5
	c-9.1,0-16.4,7.4-16.4,16.4c0,9.1,7.4,16.4,16.4,16.4c9.1,0,16.4-7.4,16.4-16.4C607.8,899.9,600.5,892.6,591.4,892.5 M750.2,892.5
	c-9.1,0-16.4,7.4-16.4,16.4c0,9.1,7.4,16.4,16.4,16.4c9.1,0,16.4-7.4,16.4-16.4C766.6,899.9,759.3,892.6,750.2,892.5 M856,892.5
	c-9.1,0-16.4,7.4-16.4,16.4c0,9.1,7.4,16.4,16.4,16.4c9.1,0,16.4-7.4,16.4-16.4C872.5,899.9,865.1,892.6,856,892.5 M379.7,945.5
	c-9.1,0-16.4,7.4-16.4,16.4c0,9.1,7.4,16.4,16.4,16.4s16.4-7.4,16.4-16.4C396.1,952.8,388.7,945.5,379.7,945.5 M485.5,945.5
	c-9.1,0-16.4,7.4-16.4,16.4c0,9.1,7.4,16.4,16.4,16.4l0,0c9.1,0,16.4-7.4,16.4-16.4C502,952.8,494.6,945.5,485.5,945.5 M538.5,945.5
	c-9.1,0-16.4,7.4-16.4,16.4c0,9.1,7.4,16.4,16.4,16.4s16.4-7.4,16.4-16.4C554.9,952.8,547.5,945.5,538.5,945.5 M750.2,945.5
	c-9.1,0-16.4,7.4-16.4,16.4c0,9.1,7.4,16.4,16.4,16.4s16.4-7.4,16.4-16.4C766.6,952.8,759.3,945.5,750.2,945.5 M803.1,945.5
	c-9.1,0-16.4,7.4-16.4,16.4c0,9.1,7.4,16.4,16.4,16.4l0,0c9.1,0,16.4-7.4,16.4-16.4C819.5,952.8,812.2,945.5,803.1,945.5"/>
<path class="st1" d="M519.1,180.8c27,0,54.4,5.9,79.1,16.9c40.8,18.3,74.2,52.9,90.7,94.6c9.5,23.9,9.7,51.4,9.5,76.7
	c-0.1,14.6-0.8,29.2-1.7,43.8c-0.4,7.3-0.9,14.6-1.3,22c-0.2,4-0.5,8-0.7,12.1c-0.2,2.6-1,6.1-0.5,8.6c1.2,5.6,10.2,9.4,15.1,10.9
	c13,4.1,26.5,1.1,39-3.3c7.4-2.6,14.1-7.1,22.3-6.3c5.9,0.5,12.8,3.2,17,7.5c4.4,4.5,3.5,8.9-0.3,13.2c-7.2,8.2-19.1,12.9-29.2,16.2
	c-11,3.6-22.2,6.9-32.5,12.4c-10.1,5.5-19.5,13.3-23.5,24.4c-4.7,12.9-0.8,26.1,4.7,38.1c9.3,20.3,21.4,39.4,35.5,56.8
	c26.4,32.5,60.9,58.8,101.3,70.8c5.9,1.8,12,3.2,18,4.4c2.6,0.5,4.2-0.1,3.3,2.6c-0.1,0.3-0.4,0.7-0.5,1c-1.3,2.3-3.6,4.1-5.7,5.6
	c-11.9,8.7-27.6,12.7-41.7,16.2c-6.7,1.6-13.4,3-20.1,4.3c-6.7,1.3-14.9,1.3-21.1,4c-10.5,4.5-12,20.1-14.1,29.7
	c-0.8,3.8-1.7,7.5-2.7,11.2c-0.9,3.3-0.6,5-4.1,5c-6,0.1-12.1-1.5-18-2.6c-13.9-2.6-28-3.9-42.1-3.6c-15.4,0.4-31.2,2.2-45.6,8.1
	c-13.7,5.7-26,14.3-38.1,22.9c-21.1,14.9-42.6,29.7-68.3,35.4c-12.9,2.8-26.2,3.2-39.3,2.7c-14-0.5-27.8-3.4-40.8-8.6
	c-24.8-9.9-44.9-27.5-67.3-41.6c-12.7-8-26.2-14.3-41.1-16.7c-15.8-2.5-31.9-3-47.9-1.3c-6.2,0.7-12.3,1.6-18.5,2.8
	c-6,1.1-12.5,3.2-18.6,3c-2.9-0.1-2.9-1-3.7-3.7c-1.1-4-2.1-8.1-3-12.2c-1.4-6.2-2.5-12.7-4.8-18.7c-1.8-4.7-4.4-9.5-9.1-11.8
	c-6-2.9-14.3-2.8-20.8-4.1c-12.2-2.3-24.3-5-36.2-8.7c-10.2-3.2-22.4-7.1-30.1-15c-0.7-0.8-1.4-1.5-2-2.5c-0.2-0.3-0.4-0.6-0.5-0.9
	c-0.8-2.5,0.2-2.2,2.6-2.7c11.8-2.2,23.3-5.5,34.4-10c20.3-8.1,39-20,55.6-34.3c24.3-21,44.4-47,59.4-75.3
	c5.1-9.7,10.6-20.3,12.4-31.1c4.4-27.1-18-42.5-40.5-50.7c-12-4.4-24.3-7.3-35.4-13.7c-5.1-2.9-15-8.7-14.2-15.9
	c0.6-5.5,7.4-9.2,11.9-10.9c3.1-1.1,6.4-1.9,9.7-1.7c4,0.2,7.4,2.3,11,3.8c13.1,5.4,27.9,9.2,42.1,7c7.1-1.1,14.5-3.8,19.7-9.1
	c1.2-1.3,1.7-1.8,2-3.3c0.5-2.8-0.4-6.6-0.5-9.5c-0.5-7.6-0.9-15.2-1.4-22.7c-1.8-28.9-3.5-58-1.4-87c0.9-12.4,2.5-24.9,6.2-36.9
	c3.6-11.9,9.6-23.1,16.1-33.6c11.9-19.4,27.4-36.5,45.8-49.9c27-19.6,59.6-30.9,92.8-34.1C497.9,180.8,508.5,180.8,519.1,180.8"/>
</svg>
